<?xml version="1.0" encoding="UTF-8" standalone="no"?>
<!DOCTYPE svg PUBLIC "-//W3C//DTD SVG 1.1//EN" "http://www.w3.org/Graphics/SVG/1.1/DTD/svg11.dtd">
<svg width="100%" height="100%" viewBox="0 0 2121 1492" version="1.1" xmlns="http://www.w3.org/2000/svg" xmlns:xlink="http://www.w3.org/1999/xlink" xml:space="preserve" style="fill-rule:evenodd;clip-rule:evenodd;stroke-linejoin:round;stroke-miterlimit:1.41421;">
    <g transform="matrix(4.16667,0,0,4.16667,0,0)">
        <path d="M168.473,238.853C168.473,208.957 176.028,182.181 190.037,160.092C170.386,126.165 133.468,106.907 83.251,106.907C54.058,106.907 24.146,112.313 0,122.044L0,227.589L46.851,227.589L46.851,153.398C56.221,150.516 66.312,149.074 77.845,149.074C127.219,149.074 155.33,179.347 155.33,230.884C155.33,285.304 118.074,318.235 70.141,318.235L69.916,357.382C120.904,357.382 160.028,337.483 183.001,304.867C173.486,286.283 168.473,264.101 168.473,238.853Z" style="fill:white;fill-rule:nonzero;"/>
        <path d="M337.514,107.331L337.514,146.916L400.185,146.916L400.185,341.546C414.962,347.272 431.687,351.202 448.824,353.058L448.824,310.638L448.824,146.916L508.331,146.916L508.331,107.331L337.514,107.331Z" style="fill:white;fill-rule:nonzero;"/>
        <rect x="26" y="232.59" width="21.088" height="21.089" style="fill:white;fill-rule:nonzero;"/>
        <rect x="26" y="258.947" width="21.088" height="21.087" style="fill:white;fill-rule:nonzero;"/>
        <rect x="0.079" y="232.59" width="21.088" height="21.089" style="fill:white;fill-rule:nonzero;"/>
        <path d="M337.094,311.509C327.725,314.392 317.632,315.833 306.1,315.833C256.724,315.833 228.614,285.56 228.614,234.023C228.614,179.604 265.87,146.672 313.803,146.672L314.029,107.524C229.696,107.524 177.798,161.944 177.798,238.348C177.798,312.589 223.568,358 300.694,358C329.885,358 359.797,352.594 383.945,342.862L383.945,227.589L337.094,227.589L337.094,311.509Z" style="fill:white;fill-rule:nonzero;"/>
        <path d="M12.487,28.173C13.93,28.552 15.751,28.704 17.952,28.704C25.922,28.704 30.78,24.833 30.78,17.774C30.78,11.019 25.998,7.755 18.711,7.755C15.827,7.755 13.626,7.982 12.487,8.286L12.487,28.173ZM5.883,3.504C9.072,2.973 13.246,2.518 18.559,2.518C25.087,2.518 29.868,4.036 32.905,6.768C35.713,9.197 37.383,12.916 37.383,17.471C37.383,22.101 36.017,25.744 33.436,28.4C29.945,32.12 24.252,34.018 17.8,34.018C15.827,34.018 14.005,33.941 12.487,33.562L12.487,54.056L5.883,54.056L5.883,3.504Z" style="fill:white;fill-rule:nonzero;"/>
        <path d="M63.415,35.763C63.415,43.809 68.045,49.881 74.573,49.881C80.949,49.881 85.73,43.885 85.73,35.611C85.73,29.387 82.618,21.493 74.724,21.493C66.83,21.493 63.415,28.78 63.415,35.763ZM92.562,35.383C92.562,48.97 83.149,54.891 74.269,54.891C64.325,54.891 56.659,47.604 56.659,35.991C56.659,23.695 64.705,16.483 74.876,16.483C85.427,16.483 92.562,24.15 92.562,35.383Z" style="fill:white;fill-rule:nonzero;"/>
        <path d="M118.29,17.319L123.148,35.991C124.211,40.089 125.198,43.885 125.881,47.68L126.108,47.68C126.943,43.961 128.158,40.014 129.371,35.991L135.368,17.319L140.985,17.319L146.678,35.687C148.044,40.089 149.107,43.961 149.942,47.68L150.17,47.68C150.777,43.961 151.763,40.089 152.978,35.763L158.215,17.319L164.819,17.319L152.978,54.056L146.906,54.056L141.289,36.522C139.998,32.423 138.936,28.78 138.025,24.454L137.873,24.454C136.963,28.856 135.824,32.651 134.533,36.598L128.613,54.056L122.541,54.056L111.459,17.319L118.29,17.319Z" style="fill:white;fill-rule:nonzero;"/>
        <path d="M209.218,32.12C209.294,27.869 207.472,21.266 199.958,21.266C193.202,21.266 190.242,27.49 189.711,32.12L209.218,32.12ZM189.635,36.902C189.787,45.934 195.556,49.654 202.235,49.654C207.017,49.654 209.901,48.818 212.406,47.756L213.545,52.538C211.192,53.6 207.169,54.891 201.324,54.891C190.015,54.891 183.26,47.376 183.26,36.294C183.26,25.213 189.787,16.483 200.49,16.483C212.482,16.483 215.67,27.034 215.67,33.79C215.67,35.156 215.518,36.218 215.442,36.902L189.635,36.902Z" style="fill:white;fill-rule:nonzero;"/>
        <path d="M239.12,28.78C239.12,24.454 239.044,20.734 238.817,17.319L244.661,17.319L244.888,24.53L245.193,24.53C246.863,19.596 250.885,16.483 255.364,16.483C256.122,16.483 256.653,16.56 257.26,16.711L257.26,23.011C256.578,22.859 255.895,22.784 254.984,22.784C250.278,22.784 246.938,26.351 246.028,31.361C245.876,32.271 245.724,33.334 245.724,34.473L245.724,54.056L239.12,54.056L239.12,28.78Z" style="fill:white;fill-rule:nonzero;"/>
        <path d="M301.661,32.12C301.738,27.869 299.915,21.266 292.401,21.266C285.646,21.266 282.686,27.49 282.155,32.12L301.661,32.12ZM282.079,36.902C282.231,45.934 287.999,49.654 294.679,49.654C299.46,49.654 302.345,48.818 304.849,47.756L305.989,52.538C303.635,53.6 299.612,54.891 293.768,54.891C282.458,54.891 275.703,47.376 275.703,36.294C275.703,25.213 282.231,16.483 292.933,16.483C304.926,16.483 308.114,27.034 308.114,33.79C308.114,35.156 307.961,36.218 307.886,36.902L282.079,36.902Z" style="fill:white;fill-rule:nonzero;"/>
        <path d="M356.612,32.271C356.612,31.437 356.536,30.298 356.308,29.463C355.322,25.213 351.679,21.721 346.669,21.721C339.762,21.721 335.663,27.793 335.663,35.915C335.663,43.353 339.306,49.501 346.517,49.501C350.995,49.501 355.094,46.541 356.308,41.532C356.536,40.621 356.612,39.71 356.612,38.647L356.612,32.271ZM363.291,0.165L363.291,44.568C363.291,47.832 363.367,51.551 363.595,54.056L357.599,54.056L357.295,47.68L357.144,47.68C355.094,51.779 350.616,54.891 344.619,54.891C335.739,54.891 328.908,47.376 328.908,36.218C328.831,23.998 336.422,16.483 345.379,16.483C350.995,16.483 354.79,19.141 356.46,22.101L356.612,22.101L356.612,0.165L363.291,0.165Z" style="fill:white;fill-rule:nonzero;"/>
        <path d="M427.422,39.331C427.422,40.165 427.574,41 427.726,41.759C429.017,46.39 432.888,49.577 437.745,49.577C444.729,49.577 448.904,43.885 448.904,35.459C448.904,28.097 445.108,21.797 437.973,21.797C433.418,21.797 429.168,24.909 427.802,29.994C427.651,30.754 427.422,31.665 427.422,32.727L427.422,39.331ZM420.819,0.165L427.422,0.165L427.422,23.239L427.574,23.239C429.927,19.141 434.177,16.483 440.099,16.483C449.207,16.483 455.658,24.074 455.582,35.231C455.582,48.363 447.309,54.891 439.112,54.891C433.798,54.891 429.548,52.841 426.815,47.983L426.588,47.983L426.284,54.056L420.515,54.056C420.667,51.551 420.819,47.832 420.819,44.568L420.819,0.165Z" style="fill:white;fill-rule:nonzero;"/>
        <path d="M481.082,17.319L489.128,39.027C489.963,41.456 490.873,44.34 491.481,46.541L491.632,46.541C492.316,44.34 493.075,41.532 493.986,38.875L501.273,17.319L508.331,17.319L498.313,43.505C493.531,56.105 490.266,62.557 485.712,66.504C482.449,69.388 479.184,70.527 477.515,70.831L475.845,65.213C477.515,64.682 479.716,63.62 481.69,61.949C483.511,60.507 485.788,57.927 487.307,54.511C487.611,53.828 487.837,53.297 487.837,52.917C487.837,52.538 487.686,52.006 487.382,51.171L473.795,17.319L481.082,17.319Z" style="fill:white;fill-rule:nonzero;"/>
    </g>
</svg>
